<svg width="100" height="153" viewBox="0 0 100 153" fill="none" xmlns="http://www.w3.org/2000/svg">
<path opacity="0.51" d="M50.0487 151.781C50.7672 151.096 51.1646 150.717 51.8831 150.031L52.1936 141.848L56.1329 145.978L58.7318 143.499L52.2277 136.68C51.3775 135.789 49.9417 135.768 49.0168 136.65L42 143.344L44.4089 145.869L48.6588 141.815L48.3482 149.999C49.0071 150.689 49.3827 151.083 50.0487 151.781Z" fill="url(#paint0_linear_2071_57)"/>
<path d="M91.0491 105.72C91.7676 105.035 92.1651 104.656 92.8836 103.971L93.1941 95.787L97.1334 99.9167L99.7323 97.4377L94.0925 91.5254L93.2281 90.6192C92.3779 89.7279 90.9422 89.7072 90.0173 90.5895L89.0848 91.479L83.0005 97.2827L85.4094 99.8081L89.6592 95.7542L89.3487 103.938C90.0076 104.629 90.3831 105.022 91.0491 105.72Z" fill="#14FF00"/>
<path opacity="0.8" d="M51.592 61.2422C52.3105 60.5569 52.708 60.1777 53.4265 59.4924L53.9603 51.5428L57.6763 55.4385L60.2751 52.9595L54.955 47.3822L54.1396 46.5274C53.3376 45.6866 51.9412 45.7072 51.0163 46.5895L50.0838 47.479L43.9995 53.2827L46.2719 55.665L50.5217 51.6111L49.988 59.5607C50.6095 60.2123 50.9638 60.5836 51.592 61.2422Z" fill="#14FF00"/>
<path d="M51.0491 107.72C51.7676 107.035 52.1651 106.656 52.8836 105.971L53.1941 97.787L57.1334 101.917L59.7323 99.4377L54.0925 93.5254L53.2281 92.6192C52.3779 91.7279 50.9422 91.7072 50.0173 92.5895L49.0848 93.479L43.0005 99.2827L45.4094 101.808L49.6592 97.7542L49.3487 105.938C50.0076 106.629 50.3831 107.022 51.0491 107.72Z" fill="#14FF00"/>
<path d="M90.0491 152.72C90.7676 152.035 91.1651 151.656 91.8836 150.971L92.1941 142.787L96.1334 146.917L98.7323 144.438L93.0925 138.525L92.2281 137.619C91.3779 136.728 89.9422 136.707 89.0173 137.589L88.0848 138.479L82.0005 144.283L84.4094 146.808L88.6592 142.754L88.3487 150.938C89.0076 151.629 89.3831 152.022 90.0491 152.72Z" fill="#14FF00"/>
<path d="M8.04914 152.72C8.76764 152.035 9.16511 151.656 9.88361 150.971L10.1941 142.787L14.1334 146.917L16.7323 144.438L11.0925 138.525L10.2281 137.619C9.37793 136.728 7.94216 136.707 7.01729 137.589L6.08478 138.479L0.000482334 144.283L2.40941 146.808L6.65925 142.754L6.34872 150.938C7.00764 151.629 7.38315 152.022 8.04914 152.72Z" fill="#14FF00"/>
<path d="M91.0491 60.7205C91.7676 60.0351 92.1651 59.6559 92.8836 58.9706L93.1941 50.787L97.1334 54.9167L99.7323 52.4377L94.0925 46.5254L93.2281 45.6192C92.3779 44.7279 90.9422 44.7072 90.0173 45.5895L89.0848 46.479L83.0005 52.2827L85.4094 54.8081L89.6592 50.7542L89.3487 58.9378C90.0076 59.6286 90.3831 60.0223 91.0491 60.7205Z" fill="#14FF00"/>
<path d="M9.04914 61.7205C9.76764 61.0351 10.1651 60.6559 10.8836 59.9706L11.1941 51.787L15.1334 55.9167L17.7323 53.4377L12.0925 47.5254L11.2281 46.6192C10.3779 45.7279 8.94216 45.7072 8.01729 46.5895L7.08478 47.479L1.00048 53.2827L3.40941 55.8081L7.65925 51.7542L7.34872 59.9378C8.00764 60.6286 8.38315 61.0223 9.04914 61.7205Z" fill="#14FF00"/>
<path opacity="0.8" d="M51.592 17.2422C52.3105 16.5569 52.708 16.1777 53.4265 15.4924L53.9603 7.54282L57.6763 11.4385L60.2751 8.95951L54.955 3.38225L54.1396 2.52744C53.3376 1.68665 51.9412 1.70724 51.0163 2.58947L50.0838 3.47899L43.9995 9.28273L46.2719 11.665L50.5217 7.61111L49.988 15.5607C50.6095 16.2123 50.9638 16.5836 51.592 17.2422Z" fill="#14FF00"/>
<path d="M91.0491 16.7205C91.7676 16.0351 92.1651 15.6559 92.8836 14.9706L93.1941 6.78698L97.1334 10.9167L99.7323 8.43772L94.0925 2.52537L93.2281 1.61921C92.3779 0.727903 90.9422 0.707242 90.0173 1.58947L89.0848 2.47899L83.0005 8.28274L85.4094 10.8081L89.6592 6.75424L89.3487 14.9378C90.0076 15.6286 90.3831 16.0223 91.0491 16.7205Z" fill="#14FF00"/>
<path d="M9.04914 17.7205C9.76764 17.0351 10.1651 16.6559 10.8836 15.9706L11.1941 7.78698L15.1334 11.9167L17.7323 9.43772L12.0925 3.52537L11.2281 2.61921C10.3779 1.7279 8.94216 1.70724 8.01729 2.58947L7.08478 3.47899L1.00048 9.28274L3.40941 11.8081L7.65925 7.75424L7.34872 15.9378C8.00764 16.6286 8.38315 17.0223 9.04914 17.7205Z" fill="#14FF00"/>
<path d="M8.04914 107.72C8.76764 107.035 9.16511 106.656 9.88361 105.971L10.1941 97.787L14.1334 101.917L16.7323 99.4377L11.0925 93.5254L10.2281 92.6192C9.37793 91.7279 7.94216 91.7072 7.01729 92.5895L6.08478 93.479L0.000482334 99.2827L2.40941 101.808L6.65925 97.7542L6.34872 105.938C7.00764 106.629 7.38315 107.022 8.04914 107.72Z" fill="#14FF00"/>
<defs>
<linearGradient id="paint0_linear_2071_57" x1="-14.1341" y1="135" x2="-14.1341" y2="290.781" gradientUnits="userSpaceOnUse">
<stop stop-color="#14FF00"/>
<stop offset="1" stop-color="#0C9900"/>
</linearGradient>
</defs>
</svg>
