<svg width="192" height="140" viewBox="0 0 192 140" fill="none" xmlns="http://www.w3.org/2000/svg">
<g clip-path="url(#clip0_2053_55)">
<path d="M122.683 65.1659L121.815 68.6344L24.6983 44.3114L25.567 40.8429C26.7189 36.2435 29.6508 32.29 33.7177 29.8523C37.7845 27.4145 42.6532 26.6922 47.2526 27.8441L109.685 43.4803C114.284 44.6323 118.237 47.5642 120.675 51.631C123.113 55.6978 123.835 60.5665 122.683 65.1659Z" fill="#FF64C8"/>
<path d="M22.9609 51.2483L16.8802 75.5274C15.7282 80.1268 16.4506 84.9955 18.8884 89.0623C21.3261 93.1292 25.2796 96.0611 29.879 97.213L92.311 112.849C96.9104 114.001 101.779 113.279 105.846 110.841C109.913 108.403 112.845 104.45 113.997 99.8504L120.077 75.5713L22.9609 51.2483ZM94.917 102.444L81.0432 98.9692C80.1233 98.7388 79.3326 98.1524 78.8451 97.339C78.3575 96.5257 78.2131 95.5519 78.4435 94.632C78.6738 93.7122 79.2602 92.9215 80.0736 92.4339C80.887 91.9464 81.8607 91.8019 82.7806 92.0323L96.6543 95.507C97.5742 95.7374 98.3649 96.3238 98.8525 97.1371C99.34 97.9505 99.4845 98.9242 99.2541 99.8441C99.0237 100.764 98.4373 101.555 97.624 102.042C96.8106 102.53 95.8369 102.674 94.917 102.444Z" fill="#5233FF"/>
</g>
<ellipse cx="13.9371" cy="13.4454" rx="13.9371" ry="13.4454" transform="matrix(-0.245345 0.969436 -0.972007 -0.23495 169.854 51.6462)" fill="#5233FF"/>
<ellipse cx="11.1682" cy="10.7741" rx="11.1682" ry="10.7741" transform="matrix(-0.245345 0.969436 -0.972007 -0.23495 166.609 53.7229)" fill="#FFA800"/>
<ellipse cx="11.2115" cy="10.8159" rx="11.2115" ry="10.8159" transform="matrix(-0.245345 0.969436 -0.972007 -0.23495 157.02 20.7664)" fill="#3B48C1"/>
<ellipse cx="8.98403" cy="8.66704" rx="8.98403" ry="8.66704" transform="matrix(-0.245345 0.969436 -0.972007 -0.23495 154.409 22.4373)" fill="#FF64C8"/>
<ellipse cx="8.23156" cy="7.94111" rx="8.23156" ry="7.94111" transform="matrix(-0.245345 0.969436 -0.972007 -0.23495 186.703 15.0923)" fill="#3B48C1"/>
<ellipse cx="6.59616" cy="6.36342" rx="6.59616" ry="6.36342" transform="matrix(-0.245345 0.969436 -0.972007 -0.23495 184.786 16.3196)" fill="#5233FF"/>
<defs>
<clipPath id="clip0_2053_55">
<rect width="114.418" height="114.418" fill="white" transform="translate(28.1855 0.952637) rotate(14.0606)"/>
</clipPath>
</defs>
</svg>
