<svg width="88" height="45" viewBox="0 0 88 45" fill="none" xmlns="http://www.w3.org/2000/svg">
<path d="M25.839 15.7074C25.839 19.3381 25.338 22.2605 24.3389 24.4659C23.337 26.6742 21.8312 28.2802 19.8158 29.2811C17.8005 30.2849 14.9664 30.7839 11.3107 30.7839H2.13281V0.62793H11.2248C14.7774 0.62793 17.6001 1.14415 19.6956 2.17373C21.7911 3.20617 23.3398 4.81507 24.3389 7.00041C25.3409 9.18862 25.839 12.0909 25.839 15.7074ZM19.5095 15.6643C19.5095 13.0345 19.2519 11.0843 18.7366 9.81382C18.2213 8.54334 17.3482 7.63135 16.1143 7.07784C14.8805 6.52721 13.0541 6.24902 10.6322 6.24902H8.28194V25.1628H10.6322C13.0541 25.1628 14.8776 24.8846 16.1029 24.3225C17.3281 23.7633 18.2013 22.8312 18.7251 21.5235C19.249 20.2186 19.5095 18.2655 19.5095 15.6643Z" fill="white"/>
<path d="M29.0078 30.7868L38.9701 0.62793H46.9513L56.9365 30.7868H50.65L48.6489 24.6638H37.0549L35.0968 30.7868H29.0078ZM38.7955 19.2808H46.9084L42.8634 6.81686L38.7955 19.2808Z" fill="white"/>
<path d="M86.0058 15.7075C86.0058 20.9529 84.9008 24.8819 82.6879 27.4974C80.4779 30.113 77.2602 31.4207 73.0405 31.4207C68.589 31.4207 65.314 30.0441 63.2214 27.291C61.1259 24.5378 60.0781 20.6776 60.0781 15.7104C60.0781 10.7145 61.1259 6.84568 63.2214 4.10684C65.3169 1.36799 68.589 0 73.0405 0C77.5207 0 80.8014 1.36799 82.8826 4.10684C84.9666 6.84282 86.0058 10.7116 86.0058 15.7075ZM79.6763 15.7075C79.6763 12.1341 79.1725 9.53004 78.1648 7.89533C77.1571 6.26063 75.4481 5.44328 73.0434 5.44328C70.6358 5.44328 68.9297 6.26063 67.922 7.89533C66.9143 9.53004 66.4105 12.1341 66.4105 15.7075C66.4105 19.2809 66.9229 21.885 67.9449 23.5197C68.9669 25.1544 70.6673 25.9717 73.0463 25.9717C75.4538 25.9717 77.16 25.1544 78.1677 23.5197C79.1725 21.885 79.6763 19.2809 79.6763 15.7075Z" fill="white"/>
<path d="M88 38.2637H0V45.0004H88V38.2637Z" fill="#454545"/>
</svg>
