<svg width="25" height="25" viewBox="0 0 25 25" fill="none" xmlns="http://www.w3.org/2000/svg">
<g clip-path="url(#clip0_716_403)">
<path d="M21.0488 4.49466C19.5188 3.80466 17.8788 3.29466 16.1638 3.00466C16.1485 3.00173 16.1327 3.00362 16.1186 3.01007C16.1044 3.01652 16.0926 3.02721 16.0848 3.04066C15.8748 3.40966 15.6408 3.89066 15.4768 4.27066C13.6579 3.9989 11.8087 3.9989 9.9898 4.27066C9.80714 3.84952 9.60115 3.43888 9.3728 3.04066C9.36506 3.02704 9.35335 3.01611 9.33924 3.00932C9.32512 3.00253 9.30927 3.00021 9.2938 3.00266C7.5798 3.29266 5.9398 3.80266 4.4088 4.49366C4.39563 4.49918 4.38447 4.50861 4.3768 4.52066C1.2648 9.09566 0.411804 13.5577 0.830804 17.9637C0.83197 17.9745 0.835319 17.9849 0.840649 17.9943C0.845978 18.0038 0.853176 18.0121 0.861804 18.0187C2.6782 19.3411 4.70414 20.3485 6.8548 20.9987C6.8698 21.0033 6.88583 21.0033 6.90082 20.9986C6.9158 20.994 6.92904 20.9849 6.9388 20.9727C7.4016 20.3537 7.8117 19.6971 8.1648 19.0097C8.1697 19.0003 8.17253 18.9899 8.17309 18.9793C8.17364 18.9687 8.17192 18.9582 8.16803 18.9483C8.16414 18.9384 8.15818 18.9295 8.15055 18.9222C8.14292 18.9148 8.1338 18.9092 8.1238 18.9057C7.47781 18.6624 6.85189 18.3688 6.2518 18.0277C6.24102 18.0215 6.23194 18.0128 6.22536 18.0022C6.21879 17.9917 6.21493 17.9797 6.21414 17.9673C6.21334 17.9549 6.21564 17.9425 6.22082 17.9312C6.226 17.92 6.23389 17.9101 6.2438 17.9027C6.3698 17.8097 6.4958 17.7127 6.6158 17.6157C6.62661 17.6069 6.63962 17.6014 6.65339 17.5996C6.66716 17.5979 6.68115 17.5999 6.6938 17.6057C10.6208 19.3697 14.8738 19.3697 18.7548 17.6057C18.7675 17.5996 18.7816 17.5972 18.7956 17.5988C18.8096 17.6004 18.8228 17.6059 18.8338 17.6147C18.9538 17.7127 19.0788 17.8097 19.2058 17.9027C19.2158 17.91 19.2238 17.9197 19.2292 17.9309C19.2345 17.942 19.237 17.9544 19.2364 17.9668C19.2358 17.9792 19.2322 17.9912 19.2258 18.0018C19.2194 18.0125 19.2105 18.0213 19.1998 18.0277C18.6018 18.3717 17.9798 18.6627 17.3268 18.9047C17.3168 18.9083 17.3076 18.914 17.3 18.9215C17.2924 18.9289 17.2864 18.9379 17.2825 18.9479C17.2787 18.9578 17.2769 18.9685 17.2775 18.9791C17.2781 18.9898 17.2809 19.0002 17.2858 19.0097C17.6458 19.6967 18.0578 20.3507 18.5108 20.9717C18.5202 20.9844 18.5333 20.9939 18.5484 20.9989C18.5634 21.004 18.5796 21.0042 18.5948 20.9997C20.7492 20.3513 22.7784 19.3434 24.5968 18.0187C24.6057 18.0125 24.6131 18.0044 24.6186 17.9951C24.6242 17.9858 24.6276 17.9754 24.6288 17.9647C25.1288 12.8707 23.7908 8.44466 21.0798 4.52266C21.0732 4.50991 21.0622 4.49998 21.0488 4.49466ZM8.7518 15.2807C7.5698 15.2807 6.5948 14.2117 6.5948 12.9007C6.5948 11.5887 7.5508 10.5207 8.7518 10.5207C9.9618 10.5207 10.9278 11.5977 10.9088 12.9007C10.9088 14.2127 9.9528 15.2807 8.7518 15.2807ZM16.7268 15.2807C15.5438 15.2807 14.5698 14.2117 14.5698 12.9007C14.5698 11.5887 15.5248 10.5207 16.7268 10.5207C17.9368 10.5207 18.9028 11.5977 18.8838 12.9007C18.8838 14.2127 17.9378 15.2807 16.7268 15.2807Z" fill="white"/>
</g>
<defs>
<clipPath id="clip0_716_403">
<rect width="24" height="24" fill="white" transform="translate(0.731812 0.00268555)"/>
</clipPath>
</defs>
</svg>
