<svg width="84" height="94" viewBox="0 0 84 94" fill="none" xmlns="http://www.w3.org/2000/svg">
<g clip-path="url(#clip0_701_377)">
<path opacity="0.8" d="M58.3363 93.742C55.0938 91.6166 49.8401 87.5696 45.4902 80.8114C40.1173 72.4691 38.9504 64.38 38.6425 60.333C39.7797 57.7409 41.4531 53.0235 41.4332 46.9207C41.4134 40.8328 39.7151 36.1403 38.5581 33.5581C38.9107 29.6253 40.1223 22.0676 45.0681 14.1275C49.711 6.67402 55.4811 2.36879 58.7584 0.268311C61.7825 0.610941 67.9896 1.77787 73.5462 6.53994C85.0218 16.372 82.4347 28.0462 82.7624 33.5631C81.5856 36.0658 79.6688 40.9917 79.8029 47.4371C79.927 53.3711 81.7345 57.8998 82.9213 60.3429C82.9213 71.029 82.5241 78.2739 75.4877 85.5635C69.3204 91.9344 61.1221 93.3944 58.3363 93.742Z" fill="#313131"/>
<path opacity="0.8" d="M27.2664 60.3528H82.7626V67.404C82.7626 81.8988 71.0089 93.6525 56.5141 93.6525H0.516357V87.1028C0.516357 72.33 12.4935 60.3528 27.2664 60.3528Z" fill="#313131"/>
<path opacity="0.8" d="M27.2664 33.5475H82.7626V26.4963C82.7626 12.0015 71.0089 0.247803 56.5141 0.247803H0.516357V6.79751C0.516357 21.5704 12.4935 33.5475 27.2664 33.5475Z" fill="#313131"/>
</g>
<defs>
<clipPath id="clip0_701_377">
<rect width="82.9017" height="94" fill="white" transform="translate(0.269043)"/>
</clipPath>
</defs>
</svg>
