<svg width="1440" height="423" viewBox="0 0 1440 423" fill="none" xmlns="http://www.w3.org/2000/svg">
<path opacity="0.34" fill-rule="evenodd" clip-rule="evenodd" d="M-55 373.762C-50.8871 374.466 121.733 373.136 126.804 373.136C138.41 373.136 147.556 371.529 153.979 368.316C160.702 365.102 165.285 359.874 168.027 352.842C170.769 345.612 172.308 332.745 172.308 314.058V289.747H172.027V153.818C172.027 125.082 180.271 102.576 197.061 86.311C213.851 70.0337 240.105 62 275.826 62C301.48 62 321.631 66.4247 336.28 75.6572C350.928 84.7043 360.394 99.1648 364.675 118.853C369.558 103.787 378.723 92.5277 392.452 85.4952C406.199 78.4627 424.209 74.8414 446.501 74.8414C475.498 74.8414 496.57 81.2684 509.998 94.3323C523.426 107.396 530.149 129.087 530.149 159.231V240.297H530.262V288.313H530.055V319.076C530.055 332.733 532.797 342.991 537.999 349.616C543.182 356.241 552.648 359.466 566.395 359.466C581.363 359.466 592.049 356.055 597.833 349.221C603.937 342.386 606.998 331.942 606.998 317.679V288.338H606.829L606.392 262.28H670.658L671.095 288.338H670.814V320.88C670.814 340.569 674.175 353.831 680.899 361.061C687.303 368.093 698.608 371.715 714.797 371.715C726.403 371.715 735.549 370.108 741.972 366.894C748.696 363.681 753.278 358.453 756.02 351.42C758.762 344.19 760.302 331.324 760.302 312.637V288.326H760.02V240.309H760.208V192.18H825L825 328.914C825 357.65 816.755 380.156 799.966 396.434C783.176 412.711 756.921 420.744 721.201 420.744C695.547 420.744 675.396 416.32 660.747 407.087C646.099 398.04 636.633 383.58 632.351 363.891C627.469 378.957 618.304 390.217 604.575 397.249C590.828 404.282 572.818 407.903 550.526 407.903C521.529 407.903 500.457 401.476 487.029 388.412C473.601 375.348 466.878 353.658 466.878 323.513V242.447H466.765V194.431H466.972V163.693C466.972 150.036 464.23 139.778 459.028 133.153C453.844 126.529 444.379 123.303 430.632 123.303C415.664 123.303 404.978 126.714 399.194 133.549C393.09 140.383 390.029 150.827 390.029 165.09V194.431H390.198L391.375 288.066L338.93 288.468L337.571 193.657L337.211 160.712C337.211 141.024 322.852 128.926 316.128 121.696C309.724 114.664 298.418 111.042 282.23 111.042C270.623 111.042 261.477 112.649 255.055 115.862C248.331 119.076 243.749 124.304 241.007 131.336C238.265 138.567 236.725 151.433 236.725 170.12V194.431H237.007V330.323C237.007 359.059 228.762 381.565 211.973 397.83C195.202 414.12 168.947 422.153 133.227 422.153C120.456 422.153 -40.1885 423 -55 423C-55 423 -54.9061 379.175 -55 373.762Z" fill="#FF0000" fill-opacity="0.32"/>
<path opacity="0.34" fill-rule="evenodd" clip-rule="evenodd" d="M1488 49.2382C1483.89 48.5337 1311.27 49.864 1306.2 49.864C1294.59 49.864 1285.44 51.4708 1279.02 54.6842C1272.3 57.8977 1267.72 63.1257 1264.97 70.1582C1262.23 77.3885 1260.69 90.2545 1260.69 108.942V133.253H1260.97V269.182C1260.97 297.918 1252.73 320.424 1235.94 336.689C1219.15 352.966 1192.89 361 1157.17 361C1131.52 361 1111.37 356.575 1096.72 347.343C1082.07 338.296 1072.61 323.835 1068.32 304.147C1063.44 319.213 1054.28 330.472 1040.55 337.505C1026.8 344.537 1008.79 348.159 986.499 348.159C957.502 348.159 936.43 341.732 923.002 328.668C909.574 315.604 902.851 293.913 902.851 263.769V182.703H902.738V134.687H902.945V103.924C902.945 90.2669 900.203 80.0086 895.001 73.3839C889.818 66.7593 880.352 63.5336 866.605 63.5336C851.637 63.5336 840.951 66.9446 835.167 73.7794C829.063 80.6142 826.002 91.0579 826.002 105.321V134.662H826.171L826.608 160.72L762.342 160.72L761.905 134.662H762.186V102.12C762.186 82.431 758.825 69.1695 752.101 61.9392C745.697 54.9067 734.392 51.2854 718.203 51.2854C706.597 51.2854 697.451 52.8921 691.028 56.1055C684.304 59.319 679.722 64.547 676.98 71.5796C674.238 78.8098 672.698 91.6759 672.698 110.363V134.674H672.98V182.691H672.792V230.82H608L608 94.0859C608 65.3503 616.245 42.8438 633.034 26.5665C649.824 10.2891 676.079 2.25553 711.799 2.25553C737.453 2.25553 757.604 6.68017 772.253 15.9127C786.901 24.9598 796.367 39.4203 800.649 59.1089C805.531 44.0427 814.696 32.7833 828.425 25.7508C842.172 18.7182 860.182 15.0969 882.474 15.0969C911.471 15.0969 932.543 21.5239 945.971 34.5878C959.399 47.6517 966.122 69.3424 966.122 99.487V180.553H966.235V228.569H966.028V259.307C966.028 272.964 968.77 283.222 973.972 289.847C979.156 296.471 988.621 299.697 1002.37 299.697C1017.34 299.697 1028.02 296.286 1033.81 289.451C1039.91 282.617 1042.97 272.173 1042.97 257.91V228.569H1042.8L1040.55 160.72H1095.43V229.343L1095.79 262.288C1095.79 281.976 1110.15 294.074 1116.87 301.304C1123.28 308.337 1134.58 311.958 1150.77 311.958C1162.38 311.958 1171.52 310.351 1177.95 307.138C1184.67 303.924 1189.25 298.696 1191.99 291.664C1194.73 284.433 1196.27 271.567 1196.27 252.88V228.569H1195.99V92.677C1195.99 63.9413 1204.24 41.4349 1221.03 25.1699C1237.8 8.88015 1264.05 0.84655 1299.77 0.84655C1312.54 0.84655 1473.19 0.000182809 1488 0C1488 0 1487.91 43.8247 1488 49.2382Z" fill="#FF0000" fill-opacity="0.32"/>
</svg>
