<svg width="25" height="25" viewBox="0 0 25 25" fill="none" xmlns="http://www.w3.org/2000/svg">
<path d="M12.7318 2.00269C11.4186 2.00269 10.1182 2.26134 8.90498 2.76389C7.69172 3.26644 6.58933 4.00303 5.66074 4.93162C3.78538 6.80698 2.73181 9.35052 2.73181 12.0027C2.73181 16.4227 5.60181 20.1727 9.57181 21.5027C10.0718 21.5827 10.2318 21.2727 10.2318 21.0027V19.3127C7.46181 19.9127 6.87181 17.9727 6.87181 17.9727C6.41181 16.8127 5.76181 16.5027 5.76181 16.5027C4.85181 15.8827 5.83181 15.9027 5.83181 15.9027C6.83181 15.9727 7.36181 16.9327 7.36181 16.9327C8.23181 18.4527 9.70181 18.0027 10.2718 17.7627C10.3618 17.1127 10.6218 16.6727 10.9018 16.4227C8.68181 16.1727 6.35181 15.3127 6.35181 11.5027C6.35181 10.3927 6.73181 9.50269 7.38181 8.79269C7.28181 8.54269 6.93181 7.50269 7.48181 6.15269C7.48181 6.15269 8.32181 5.88269 10.2318 7.17269C11.0218 6.95269 11.8818 6.84269 12.7318 6.84269C13.5818 6.84269 14.4418 6.95269 15.2318 7.17269C17.1418 5.88269 17.9818 6.15269 17.9818 6.15269C18.5318 7.50269 18.1818 8.54269 18.0818 8.79269C18.7318 9.50269 19.1118 10.3927 19.1118 11.5027C19.1118 15.3227 16.7718 16.1627 14.5418 16.4127C14.9018 16.7227 15.2318 17.3327 15.2318 18.2627V21.0027C15.2318 21.2727 15.3918 21.5927 15.9018 21.5027C19.8718 20.1627 22.7318 16.4227 22.7318 12.0027C22.7318 10.6895 22.4732 9.38911 21.9706 8.17585C21.4681 6.9626 20.7315 5.8602 19.8029 4.93162C18.8743 4.00303 17.7719 3.26644 16.5586 2.76389C15.3454 2.26134 14.045 2.00269 12.7318 2.00269Z" fill="white"/>
</svg>
