<svg width="179" height="57" viewBox="0 0 179 57" fill="none" xmlns="http://www.w3.org/2000/svg">
<rect x="0.135401" y="0.135401" width="178.729" height="56.7036" rx="28.3518" fill="url(#paint0_linear_623_1327)" fill-opacity="0.7" stroke="white" stroke-width="0.270802"/>
<path d="M74.365 32.611V24.3555H77.3882C77.974 24.3555 78.4591 24.4523 78.8434 24.6458C79.2277 24.8366 79.5152 25.0959 79.706 25.4238C79.8968 25.7489 79.9922 26.1157 79.9922 26.5242C79.9922 26.8682 79.9291 27.1584 79.8027 27.3949C79.6764 27.6287 79.5071 27.8168 79.2948 27.9592C79.0852 28.099 78.8541 28.2011 78.6015 28.2656V28.3462C78.8756 28.3596 79.143 28.4483 79.4037 28.6123C79.667 28.7735 79.8847 29.0033 80.0567 29.3015C80.2287 29.5998 80.3147 29.9626 80.3147 30.3899C80.3147 30.8118 80.2153 31.1907 80.0164 31.5266C79.8202 31.8599 79.5165 32.1246 79.1054 32.3207C78.6942 32.5142 78.1689 32.611 77.5293 32.611H74.365ZM75.6105 31.5428H77.4083C78.0049 31.5428 78.4322 31.4272 78.6902 31.1961C78.9482 30.965 79.0772 30.6761 79.0772 30.3294C79.0772 30.0688 79.0113 29.8296 78.8797 29.6119C78.748 29.3943 78.5599 29.2209 78.3153 29.0919C78.0735 28.9629 77.7859 28.8985 77.4527 28.8985H75.6105V31.5428ZM75.6105 27.927H77.2794C77.5588 27.927 77.8101 27.8732 78.0332 27.7657C78.2589 27.6583 78.4376 27.5078 78.5693 27.3143C78.7036 27.1181 78.7708 26.887 78.7708 26.621C78.7708 26.2797 78.6512 25.9935 78.4121 25.7624C78.1729 25.5312 77.8061 25.4157 77.3116 25.4157H75.6105V27.927ZM83.4971 32.748C83.1048 32.748 82.7501 32.6755 82.433 32.5304C82.1159 32.3826 81.8646 32.1689 81.6792 31.8894C81.4964 31.61 81.4051 31.2673 81.4051 30.8615C81.4051 30.5122 81.4722 30.2246 81.6066 29.9989C81.741 29.7732 81.9224 29.5945 82.1508 29.4628C82.3792 29.3311 82.6345 29.2317 82.9167 29.1645C83.1988 29.0973 83.4864 29.0463 83.7793 29.0113C84.1502 28.9683 84.4511 28.9334 84.6822 28.9065C84.9133 28.877 85.0813 28.8299 85.1861 28.7654C85.2909 28.7009 85.3433 28.5961 85.3433 28.451V28.4228C85.3433 28.0708 85.2439 27.798 85.045 27.6045C84.8489 27.411 84.5559 27.3143 84.1663 27.3143C83.7605 27.3143 83.4407 27.4043 83.2069 27.5844C82.9758 27.7617 82.8159 27.9592 82.7272 28.1769L81.5945 27.9189C81.7289 27.5427 81.9251 27.239 82.183 27.0079C82.4437 26.7741 82.7433 26.6048 83.0819 26.5C83.4205 26.3925 83.7766 26.3388 84.1502 26.3388C84.3974 26.3388 84.6594 26.3683 84.9362 26.4275C85.2157 26.4839 85.4763 26.5887 85.7182 26.7419C85.9627 26.8951 86.163 27.1141 86.3188 27.3989C86.4747 27.6811 86.5526 28.0479 86.5526 28.4994V32.611H85.3756V31.7645H85.3272C85.2493 31.9203 85.1324 32.0735 84.9765 32.224C84.8206 32.3745 84.6204 32.4995 84.3759 32.5989C84.1313 32.6983 83.8384 32.748 83.4971 32.748ZM83.7591 31.7806C84.0924 31.7806 84.3772 31.7148 84.6137 31.5831C84.8529 31.4514 85.0343 31.2794 85.1579 31.0671C85.2842 30.8521 85.3474 30.6224 85.3474 30.3778V29.5797C85.3044 29.6227 85.221 29.663 85.0974 29.7006C84.9765 29.7355 84.8381 29.7665 84.6822 29.7933C84.5264 29.8175 84.3745 29.8404 84.2267 29.8619C84.0789 29.8807 83.9553 29.8968 83.8559 29.9102C83.6221 29.9398 83.4085 29.9895 83.215 30.0594C83.0242 30.1292 82.871 30.23 82.7554 30.3617C82.6426 30.4907 82.5861 30.6627 82.5861 30.8777C82.5861 31.176 82.6963 31.4017 82.9167 31.5549C83.137 31.7054 83.4179 31.7806 83.7591 31.7806ZM89.3632 28.9347V32.611H88.1579V26.4194H89.3148V27.4271H89.3914C89.5339 27.0993 89.7569 26.8359 90.0606 26.6371C90.3669 26.4382 90.7525 26.3388 91.2175 26.3388C91.6394 26.3388 92.0089 26.4275 92.326 26.6048C92.6431 26.7795 92.889 27.0402 93.0636 27.3868C93.2383 27.7335 93.3257 28.1621 93.3257 28.6727V32.611H92.1204V28.8178C92.1204 28.3691 92.0035 28.0184 91.7697 27.7657C91.5359 27.5105 91.2148 27.3828 90.8063 27.3828C90.5268 27.3828 90.2782 27.4433 90.0606 27.5642C89.8456 27.6851 89.6749 27.8625 89.5486 28.0963C89.425 28.3274 89.3632 28.6069 89.3632 28.9347ZM96.0506 30.5108L96.0425 29.0395H96.2521L98.7191 26.4194L100.162 26.4194L97.3486 29.4023H97.1591L96.0506 30.5108ZM94.9421 32.611V24.3555H96.1473V32.611H94.9421ZM98.8521 32.611L96.6351 29.6684L97.4655 28.8259L100.331 32.611H98.8521ZM102.466 24.3555V32.611H101.261V24.3555L102.466 24.3555ZM106.756 32.7359C106.146 32.7359 105.62 32.6056 105.18 32.3449C104.742 32.0816 104.403 31.7121 104.164 31.2364C103.927 30.7581 103.809 30.1978 103.809 29.5555C103.809 28.9213 103.927 28.3623 104.164 27.8786C104.403 27.3949 104.736 27.0173 105.164 26.7459C105.594 26.4745 106.096 26.3388 106.671 26.3388C107.021 26.3388 107.359 26.3966 107.687 26.5121C108.015 26.6277 108.309 26.8091 108.57 27.0563C108.83 27.3035 109.036 27.6247 109.187 28.0197C109.337 28.412 109.412 28.889 109.412 29.4507V29.878H104.49V28.975H108.231C108.231 28.6579 108.167 28.3771 108.038 28.1326C107.909 27.8853 107.727 27.6905 107.494 27.5481C107.262 27.4056 106.991 27.3344 106.679 27.3344C106.341 27.3344 106.045 27.4177 105.792 27.5844C105.543 27.7483 105.349 27.9633 105.212 28.2293C105.078 28.4927 105.01 28.7789 105.01 29.0879V29.7933C105.01 30.2072 105.083 30.5592 105.228 30.8494C105.376 31.1397 105.581 31.3614 105.845 31.5146C106.108 31.665 106.416 31.7403 106.768 31.7403C106.996 31.7403 107.205 31.708 107.393 31.6435C107.581 31.5764 107.743 31.4769 107.88 31.3453C108.018 31.2136 108.122 31.051 108.195 30.8575L109.336 31.0631C109.244 31.399 109.08 31.6933 108.844 31.9459C108.61 32.1958 108.316 32.3906 107.961 32.5304C107.609 32.6674 107.207 32.7359 106.756 32.7359ZM115.389 27.931L114.297 28.1245C114.251 27.9848 114.179 27.8517 114.079 27.7254C113.982 27.5991 113.851 27.4957 113.684 27.4151C113.517 27.3344 113.309 27.2941 113.059 27.2941C112.718 27.2941 112.433 27.3707 112.205 27.5239C111.976 27.6744 111.862 27.8692 111.862 28.1084C111.862 28.3153 111.939 28.4819 112.092 28.6082C112.245 28.7345 112.492 28.838 112.834 28.9186L113.817 29.1443C114.387 29.276 114.811 29.4789 115.091 29.753C115.37 30.0271 115.51 30.3832 115.51 30.8212C115.51 31.1921 115.403 31.5226 115.188 31.8128C114.975 32.1004 114.678 32.3261 114.297 32.49C113.918 32.654 113.479 32.7359 112.979 32.7359C112.285 32.7359 111.72 32.5881 111.282 32.2925C110.844 31.9942 110.575 31.571 110.475 31.0228L111.64 30.8454C111.713 31.1491 111.862 31.3788 112.088 31.5347C112.314 31.6879 112.608 31.7645 112.971 31.7645C113.366 31.7645 113.681 31.6825 113.918 31.5186C114.154 31.352 114.273 31.1491 114.273 30.9099C114.273 30.7164 114.2 30.5538 114.055 30.4222C113.913 30.2905 113.693 30.191 113.398 30.1239L112.35 29.8941C111.772 29.7624 111.345 29.5528 111.068 29.2653C110.794 28.9777 110.657 28.6136 110.657 28.1729C110.657 27.8074 110.759 27.4876 110.963 27.2135C111.167 26.9394 111.45 26.7258 111.81 26.5726C112.17 26.4167 112.582 26.3388 113.047 26.3388C113.716 26.3388 114.243 26.4839 114.627 26.7741C115.012 27.0617 115.266 27.4473 115.389 27.931ZM121.475 27.931L120.383 28.1245C120.337 27.9848 120.264 27.8517 120.165 27.7254C120.068 27.5991 119.936 27.4957 119.77 27.4151C119.603 27.3344 119.395 27.2941 119.145 27.2941C118.804 27.2941 118.519 27.3707 118.29 27.5239C118.062 27.6744 117.948 27.8692 117.948 28.1084C117.948 28.3153 118.024 28.4819 118.178 28.6082C118.331 28.7345 118.578 28.838 118.919 28.9186L119.903 29.1443C120.473 29.276 120.897 29.4789 121.177 29.753C121.456 30.0271 121.596 30.3832 121.596 30.8212C121.596 31.1921 121.488 31.5226 121.273 31.8128C121.061 32.1004 120.764 32.3261 120.383 32.49C120.004 32.654 119.564 32.7359 119.064 32.7359C118.371 32.7359 117.805 32.5881 117.367 32.2925C116.929 31.9942 116.661 31.571 116.561 31.0228L117.726 30.8454C117.799 31.1491 117.948 31.3788 118.174 31.5347C118.399 31.6879 118.694 31.7645 119.056 31.7645C119.451 31.7645 119.767 31.6825 120.004 31.5186C120.24 31.352 120.358 31.1491 120.358 30.9099C120.358 30.7164 120.286 30.5538 120.141 30.4222C119.998 30.2905 119.779 30.191 119.484 30.1239L118.436 29.8941C117.858 29.7624 117.431 29.5528 117.154 29.2653C116.88 28.9777 116.743 28.6136 116.743 28.1729C116.743 27.8074 116.845 27.4876 117.049 27.2135C117.253 26.9394 117.535 26.7258 117.895 26.5726C118.256 26.4167 118.668 26.3388 119.133 26.3388C119.802 26.3388 120.329 26.4839 120.713 26.7741C121.097 27.0617 121.351 27.4473 121.475 27.931ZM132.879 27.0402H131.621C131.573 26.7714 131.483 26.535 131.351 26.3307C131.219 26.1265 131.058 25.9532 130.867 25.8107C130.676 25.6683 130.463 25.5608 130.226 25.4882C129.992 25.4157 129.744 25.3794 129.48 25.3794C129.005 25.3794 128.579 25.499 128.203 25.7382C127.829 25.9773 127.533 26.328 127.316 26.7903C127.101 27.2525 126.993 27.8168 126.993 28.4833C126.993 29.1551 127.101 29.7221 127.316 30.1843C127.533 30.6465 127.83 30.9959 128.207 31.2324C128.583 31.4689 129.006 31.5871 129.476 31.5871C129.737 31.5871 129.984 31.5522 130.218 31.4823C130.455 31.4097 130.668 31.3036 130.859 31.1639C131.05 31.0241 131.211 30.8535 131.343 30.6519C131.477 30.4477 131.57 30.2139 131.621 29.9505L132.879 29.9546C132.811 30.3604 132.681 30.7339 132.488 31.0752C132.297 31.4138 132.051 31.7067 131.75 31.9539C131.452 32.1985 131.11 32.3879 130.726 32.5223C130.342 32.6567 129.923 32.7238 129.468 32.7238C128.754 32.7238 128.117 32.5545 127.558 32.2159C126.999 31.8747 126.558 31.3869 126.236 30.7527C125.916 30.1185 125.756 29.362 125.756 28.4833C125.756 27.6018 125.917 26.8453 126.24 26.2138C126.562 25.5796 127.003 25.0932 127.562 24.7546C128.121 24.4133 128.756 24.2427 129.468 24.2427C129.906 24.2427 130.315 24.3058 130.694 24.4321C131.075 24.5557 131.418 24.7385 131.722 24.9803C132.025 25.2195 132.277 25.5124 132.475 25.8591C132.674 26.2031 132.809 26.5968 132.879 27.0402ZM136.074 32.748C135.682 32.748 135.327 32.6755 135.01 32.5304C134.693 32.3826 134.442 32.1689 134.256 31.8894C134.073 31.61 133.982 31.2673 133.982 30.8615C133.982 30.5122 134.049 30.2246 134.184 29.9989C134.318 29.7732 134.499 29.5945 134.728 29.4628C134.956 29.3311 135.211 29.2317 135.494 29.1645C135.776 29.0973 136.063 29.0463 136.356 29.0113C136.727 28.9683 137.028 28.9334 137.259 28.9065C137.49 28.877 137.658 28.8299 137.763 28.7654C137.868 28.7009 137.92 28.5961 137.92 28.451V28.4228C137.92 28.0708 137.821 27.798 137.622 27.6045C137.426 27.411 137.133 27.3143 136.743 27.3143C136.337 27.3143 136.018 27.4043 135.784 27.5844C135.553 27.7617 135.393 27.9592 135.304 28.1769L134.171 27.9189C134.306 27.5427 134.502 27.239 134.76 27.0079C135.021 26.7741 135.32 26.6048 135.659 26.5C135.998 26.3925 136.354 26.3388 136.727 26.3388C136.974 26.3388 137.236 26.3683 137.513 26.4275C137.793 26.4839 138.053 26.5887 138.295 26.7419C138.54 26.8951 138.74 27.1141 138.896 27.3989C139.052 27.6811 139.13 28.0479 139.13 28.4994V32.611H137.953V31.7645H137.904C137.826 31.9203 137.709 32.0735 137.553 32.224C137.398 32.3745 137.197 32.4995 136.953 32.5989C136.708 32.6983 136.415 32.748 136.074 32.748ZM136.336 31.7806C136.669 31.7806 136.954 31.7148 137.191 31.5831C137.43 31.4514 137.611 31.2794 137.735 31.0671C137.861 30.8521 137.924 30.6224 137.924 30.3778V29.5797C137.881 29.6227 137.798 29.663 137.674 29.7006C137.553 29.7355 137.415 29.7665 137.259 29.7933C137.103 29.8175 136.952 29.8404 136.804 29.8619C136.656 29.8807 136.532 29.8968 136.433 29.9102C136.199 29.9398 135.985 29.9895 135.792 30.0594C135.601 30.1292 135.448 30.23 135.332 30.3617C135.22 30.4907 135.163 30.6627 135.163 30.8777C135.163 31.176 135.273 31.4017 135.494 31.5549C135.714 31.7054 135.995 31.7806 136.336 31.7806ZM140.735 32.611V26.4194H141.9V27.403H141.964C142.077 27.0697 142.276 26.8077 142.561 26.6169C142.848 26.4234 143.174 26.3267 143.536 26.3267C143.612 26.3267 143.7 26.3294 143.802 26.3348C143.907 26.3401 143.989 26.3468 144.048 26.3549V27.5078C144 27.4943 143.914 27.4795 143.79 27.4634C143.667 27.4446 143.543 27.4352 143.42 27.4352C143.135 27.4352 142.881 27.4957 142.658 27.6166C142.437 27.7348 142.263 27.9001 142.134 28.1124C142.005 28.322 141.94 28.5612 141.94 28.8299V32.611H140.735ZM147.188 32.7319C146.688 32.7319 146.242 32.6043 145.849 32.349C145.46 32.091 145.153 31.7242 144.93 31.2485C144.71 30.7702 144.6 30.1964 144.6 29.5273C144.6 28.8581 144.711 28.2857 144.934 27.8101C145.16 27.3344 145.469 26.9703 145.861 26.7177C146.254 26.4651 146.698 26.3388 147.196 26.3388C147.58 26.3388 147.889 26.4033 148.123 26.5323C148.359 26.6586 148.542 26.8064 148.671 26.9757C148.803 27.145 148.905 27.2941 148.977 27.4231H149.05V24.3555H150.255V32.611H149.078V31.6476H148.977C148.905 31.7793 148.8 31.9297 148.663 32.099C148.528 32.2683 148.343 32.4161 148.107 32.5425C147.87 32.6688 147.564 32.7319 147.188 32.7319ZM147.454 31.704C147.8 31.704 148.093 31.6126 148.332 31.4299C148.574 31.2445 148.757 30.9878 148.881 30.66C149.007 30.3321 149.07 29.9505 149.07 29.5152C149.07 29.0852 149.008 28.709 148.885 28.3865C148.761 28.064 148.58 27.8128 148.34 27.6327C148.101 27.4527 147.806 27.3627 147.454 27.3627C147.091 27.3627 146.788 27.4567 146.547 27.6448C146.305 27.8329 146.122 28.0896 145.998 28.4147C145.877 28.7399 145.817 29.1067 145.817 29.5152C145.817 29.929 145.879 30.3012 146.002 30.6318C146.126 30.9623 146.309 31.2243 146.551 31.4178C146.795 31.6086 147.096 31.704 147.454 31.704Z" fill="white"/>
<g clip-path="url(#clip0_623_1327)">
<path d="M47.6837 9.73854C46.3609 10.5924 44.0726 12.3162 42.2292 15.2768C40.2421 18.467 39.7573 21.5054 39.6136 23.0835H35.0768C29.1415 23.0835 24.3294 18.2714 24.3294 12.3361V9.70462H46.8278C47.1151 9.70462 47.4004 9.71659 47.6837 9.73854Z" fill="#9A191E"/>
<path d="M57.3762 21.8127C57.3643 22.2935 57.3543 22.7204 57.3762 23.0835H39.6141C39.7578 21.5054 40.2426 18.467 42.2297 15.2768C44.0731 12.3162 46.3615 10.5924 47.6842 9.73854C48.2927 9.78842 48.8892 9.88817 49.4638 10.0358C49.5356 10.0558 49.6074 10.0737 49.6793 10.0957C49.6992 10.1016 49.7192 10.1076 49.7411 10.1136C49.8508 10.1455 49.9626 10.1814 50.0763 10.2174C50.6189 10.3969 51.2015 10.6343 51.798 10.9495C51.8818 10.9954 51.9676 11.0433 52.0534 11.0912C52.1472 11.1451 52.2409 11.1989 52.3367 11.2588C52.4285 11.3146 52.5202 11.3725 52.612 11.4324C52.6838 11.4782 52.7556 11.5261 52.8255 11.576C52.8973 11.6239 52.9691 11.6758 53.0389 11.7276C53.0968 11.7695 53.1567 11.8134 53.2145 11.8573C53.3003 11.9211 53.3841 11.989 53.4699 12.0588C53.5377 12.1127 53.6055 12.1705 53.6734 12.2284C53.7253 12.2743 53.7771 12.3182 53.829 12.364C53.8789 12.4079 53.9287 12.4538 53.9786 12.4997C54.0285 12.5436 54.0784 12.5895 54.1263 12.6354C55.8081 14.2474 56.9553 16.41 57.2825 18.8321C57.2924 18.9178 57.3024 19.0036 57.3124 19.0894C57.3283 19.247 57.3423 19.4026 57.3543 19.5563C57.3563 19.6141 57.3603 19.674 57.3623 19.7318C57.3722 19.9034 57.3762 20.077 57.3762 20.2506V21.8127Z" fill="#D02128"/>
<path d="M57.3762 36.686V33.853H39.6481V33.843C40.1069 32.8016 40.7793 30.9062 40.7693 28.4543C40.7613 26.0064 40.079 24.121 39.6141 23.0836H57.3762C56.9014 24.0891 56.1333 26.0682 56.1872 28.6578C56.237 31.0419 56.9612 32.8614 57.4381 33.843C57.4381 34.8625 57.4281 35.8041 57.3762 36.686Z" fill="#9A191E"/>
<path d="M57.3764 33.8529V36.6859C57.3106 37.8411 57.1689 38.8945 56.8797 39.888C56.8777 39.902 56.8737 39.914 56.8677 39.9279C56.4048 41.3624 55.6427 42.6632 54.6552 43.7565C54.5893 43.8303 54.5215 43.9021 54.4517 43.9739C54.3938 44.0358 54.3359 44.0936 54.2761 44.1515C54.2103 44.2173 54.1444 44.2812 54.0786 44.341C52.303 45.9949 50.2022 46.7231 48.7877 47.0483C48.7797 47.0523 48.7697 47.0543 48.7617 47.0543C48.3428 47.1321 47.9138 47.186 47.4789 47.2119C46.1721 46.3461 44.1112 44.73 42.3995 42.0706C40.2448 38.7249 39.7739 35.4809 39.6483 33.8529H57.3764Z" fill="#D02128"/>
<path d="M47.4782 47.2119C47.2627 47.2259 47.0472 47.2319 46.8278 47.2319H24.3294V44.6004C24.3294 38.665 29.1415 33.8529 35.0768 33.8529H39.6475C39.7732 35.4809 40.2441 38.7249 42.3987 42.0706C44.1105 44.73 46.1714 46.3461 47.4782 47.2119Z" fill="#9A191E"/>
</g>
<defs>
<linearGradient id="paint0_linear_623_1327" x1="-7.44455" y1="14.9219" x2="183.17" y2="33.2328" gradientUnits="userSpaceOnUse">
<stop stop-color="#BABABA" stop-opacity="0.37"/>
<stop offset="0.0001" stop-color="#FBFBFB" stop-opacity="0.37"/>
<stop offset="1" stop-color="white" stop-opacity="0.26"/>
</linearGradient>
<clipPath id="clip0_623_1327">
<rect width="33.3077" height="37.7646" fill="white" transform="translate(24.2304 9.60487)"/>
</clipPath>
</defs>
</svg>
