<svg width="213" height="52" viewBox="0 0 213 52" fill="none" xmlns="http://www.w3.org/2000/svg">
<g clip-path="url(#clip0_1_483)">
<path d="M31.8661 1.13142C30.069 2.28486 26.96 4.6133 24.4554 8.61261C21.7556 12.9218 21.097 17.0263 20.9018 19.158H14.7379C6.67393 19.158 0.135986 12.6577 0.135986 4.64025V1.0856H30.7033C31.0936 1.0856 31.4812 1.10177 31.8661 1.13142Z" fill="#9A191E"/>
<path d="M45.0335 17.4414C45.0172 18.0908 45.0037 18.6676 45.0335 19.158H20.9011C21.0963 17.0263 21.755 12.9219 24.4547 8.61268C26.9593 4.61337 30.0683 2.28493 31.8655 1.13148C32.6922 1.19886 33.5027 1.33361 34.2833 1.53303C34.3809 1.55998 34.4785 1.58424 34.576 1.61388C34.6032 1.62197 34.6303 1.63005 34.6601 1.63814C34.8092 1.68126 34.961 1.72976 35.1155 1.77827C35.8527 2.02082 36.6442 2.34152 37.4547 2.76732C37.5685 2.82931 37.6851 2.89399 37.8016 2.95866C37.929 3.03143 38.0564 3.10419 38.1866 3.18504C38.3112 3.2605 38.4359 3.33865 38.5606 3.4195C38.6582 3.48149 38.7558 3.54616 38.8506 3.61354C38.9482 3.67822 39.0458 3.74829 39.1407 3.81836C39.2193 3.87495 39.3006 3.93424 39.3792 3.99353C39.4958 4.07977 39.6096 4.17139 39.7262 4.26572C39.8183 4.33848 39.9105 4.41663 40.0026 4.49479C40.0731 4.55677 40.1436 4.61606 40.2141 4.67805C40.2818 4.73733 40.3496 4.79932 40.4174 4.8613C40.4851 4.92059 40.5529 4.98258 40.618 5.04456C42.903 7.22208 44.4616 10.1434 44.9061 13.4151C44.9197 13.531 44.9332 13.6469 44.9468 13.7627C44.9684 13.9756 44.9874 14.1858 45.0037 14.3934C45.0064 14.4715 45.0118 14.5524 45.0145 14.6305C45.0281 14.8623 45.0335 15.0967 45.0335 15.3312V17.4414Z" fill="#D02128"/>
<path d="M45.0335 37.532V33.7052H20.9472V33.6917C21.5706 32.285 22.4841 29.7248 22.4706 26.4127C22.4597 23.1059 21.5327 20.5592 20.9011 19.1578H45.0335C44.3884 20.5161 43.3448 23.1895 43.418 26.6875C43.4858 29.908 44.4697 32.3658 45.1175 33.6917C45.1175 35.0688 45.104 36.3409 45.0335 37.532Z" fill="#9A191E"/>
<path d="M45.0333 33.7058V37.5326C44.9439 39.093 44.7514 40.5159 44.3584 41.858C44.3557 41.8769 44.3503 41.893 44.3421 41.9119C43.7133 43.8496 42.6778 45.6067 41.3361 47.0835C41.2466 47.1832 41.1545 47.2803 41.0596 47.3773C40.981 47.4608 40.9024 47.539 40.8211 47.6171C40.7316 47.7061 40.6422 47.7923 40.5527 47.8731C38.1403 50.1073 35.286 51.0909 33.3642 51.5302C33.3534 51.5356 33.3398 51.5383 33.329 51.5383C32.7598 51.6434 32.177 51.7161 31.5861 51.7512C29.8106 50.5816 27.0106 48.3987 24.6849 44.8063C21.7575 40.2868 21.1178 35.9048 20.947 33.7058H45.0333Z" fill="#D02128"/>
<path d="M31.587 51.7512C31.2942 51.77 31.0015 51.7781 30.7033 51.7781H0.135986V48.2235C0.135986 40.206 6.67393 33.7058 14.7379 33.7058H20.9479C21.1187 35.9048 21.7584 40.2868 24.6858 44.8063C27.0115 48.3987 29.8115 50.5816 31.587 51.7512Z" fill="#9A191E"/>
</g>
<path d="M58.2879 41L58.2879 12.833L72.5559 12.833C77.5989 12.833 81.0839 15.785 81.0839 19.885C81.0839 22.755 79.6489 24.846 77.1479 26.158C80.4279 27.634 82.3139 30.258 82.3139 33.374C82.3139 37.884 78.4599 41 73.0889 41H58.2879ZM64.3149 24.19L71.0389 24.19C73.2939 24.19 74.8929 22.878 74.8929 21.074C74.8929 19.311 73.2939 17.999 71.0389 17.999H64.3149V24.19ZM64.3149 35.834H71.9819C74.4009 35.834 76.1229 34.399 76.1229 32.39C76.1229 30.381 74.4009 28.946 71.9819 28.946L64.3149 28.946V35.834ZM100.158 41.492C92.0809 41.492 85.1929 34.809 85.1929 26.896C85.1929 18.983 92.0809 12.341 100.158 12.341C104.422 12.341 108.358 14.145 111.105 17.056L106.718 20.992C105.078 19.106 102.741 17.835 100.158 17.835C95.4429 17.835 91.4249 22.017 91.4249 26.896C91.4249 31.816 95.4429 35.998 100.158 35.998C102.741 35.998 105.078 34.727 106.718 32.841L111.105 36.777C108.358 39.647 104.422 41.492 100.158 41.492ZM135.102 41L133.298 36.572H120.752L118.948 41H112.183L123.663 12.833L130.428 12.833L141.908 41H135.102ZM122.843 31.447H131.207L127.025 21.156L122.843 31.447ZM168.639 41L161.751 41L155.314 31.857L150.845 31.857V41H144.818V12.833L157.487 12.833C163.596 12.833 168.106 16.769 168.106 22.345C168.106 26.527 165.564 29.807 161.71 31.16L168.639 41ZM150.845 18.368V26.322L156.831 26.322C159.824 26.322 161.874 24.764 161.874 22.345C161.874 19.926 159.824 18.368 156.831 18.368H150.845ZM172.441 41V12.833L182.527 12.833C191.998 12.833 198.722 18.655 198.722 26.896C198.722 35.137 191.998 41 182.527 41H172.441ZM178.468 35.506H183.306C188.677 35.506 192.49 31.939 192.49 26.896C192.49 21.894 188.677 18.327 183.306 18.327H178.468V35.506Z" fill="white"/>
<defs>
<clipPath id="clip0_1_483">
<rect width="45.2533" height="51.0128" fill="white" transform="translate(0 0.951172)"/>
</clipPath>
</defs>
</svg>
