<svg width="21" height="16" viewBox="0 0 21 16" fill="none" xmlns="http://www.w3.org/2000/svg">
<path d="M5.4999 6.83914C5.2769 6.83914 5.0629 6.87314 4.8499 6.90414C4.9189 6.67214 4.9899 6.43614 5.1039 6.22414C5.2179 5.91614 5.3959 5.64914 5.5729 5.38014C5.7209 5.08914 5.9819 4.89214 6.1739 4.64314C6.3749 4.40114 6.6489 4.24014 6.8659 4.03914C7.0789 3.82914 7.3579 3.72414 7.5799 3.57614C7.8119 3.44314 8.0139 3.29614 8.2299 3.22614L8.7689 3.00414L9.2429 2.80714L8.7579 0.869141L8.1609 1.01314C7.9699 1.06114 7.7369 1.11714 7.4719 1.18414C7.2009 1.23414 6.9119 1.37114 6.5899 1.49614C6.2719 1.63814 5.9039 1.73414 5.5619 1.96214C5.2179 2.18014 4.8209 2.36214 4.4709 2.65414C4.1319 2.95514 3.7229 3.21614 3.4209 3.59914C3.0909 3.95714 2.7649 4.33314 2.5119 4.76114C2.2189 5.16914 2.0199 5.61714 1.8099 6.06014C1.6199 6.50314 1.4669 6.95614 1.3419 7.39614C1.1049 8.27814 0.998901 9.11614 0.957901 9.83314C0.923901 10.5511 0.943901 11.1481 0.985901 11.5801C1.0009 11.7841 1.0289 11.9821 1.0489 12.1191L1.0739 12.2871L1.0999 12.2811C1.27776 13.112 1.6872 13.8755 2.28086 14.4833C2.87452 15.0912 3.62814 15.5185 4.45454 15.716C5.28094 15.9134 6.14635 15.8728 6.95066 15.599C7.75496 15.3251 8.46531 14.8291 8.99951 14.1684C9.53371 13.5077 9.86995 12.7093 9.96932 11.8654C10.0687 11.0216 9.92714 10.1669 9.56103 9.40016C9.19493 8.63343 8.61924 7.986 7.90055 7.53279C7.18187 7.07957 6.34956 6.83908 5.4999 6.83914ZM16.4999 6.83914C16.2769 6.83914 16.0629 6.87314 15.8499 6.90414C15.9189 6.67214 15.9899 6.43614 16.1039 6.22414C16.2179 5.91614 16.3959 5.64914 16.5729 5.38014C16.7209 5.08914 16.9819 4.89214 17.1739 4.64314C17.3749 4.40114 17.6489 4.24014 17.8659 4.03914C18.0789 3.82914 18.3579 3.72414 18.5799 3.57614C18.8119 3.44314 19.0139 3.29614 19.2299 3.22614L19.7689 3.00414L20.2429 2.80714L19.7579 0.869141L19.1609 1.01314C18.9699 1.06114 18.7369 1.11714 18.4719 1.18414C18.2009 1.23414 17.9119 1.37114 17.5899 1.49614C17.2729 1.63914 16.9039 1.73414 16.5619 1.96314C16.2179 2.18114 15.8209 2.36314 15.4709 2.65514C15.1319 2.95614 14.7229 3.21714 14.4209 3.59914C14.0909 3.95714 13.7649 4.33314 13.5119 4.76114C13.2189 5.16914 13.0199 5.61714 12.8099 6.06014C12.6199 6.50314 12.4669 6.95614 12.3419 7.39614C12.1049 8.27814 11.9989 9.11614 11.9579 9.83314C11.9239 10.5511 11.9439 11.1481 11.9859 11.5801C12.0009 11.7841 12.0289 11.9821 12.0489 12.1191L12.0739 12.2871L12.0999 12.2811C12.2778 13.112 12.6872 13.8755 13.2809 14.4833C13.8745 15.0912 14.6281 15.5185 15.4545 15.716C16.2809 15.9134 17.1463 15.8728 17.9507 15.599C18.755 15.3251 19.4653 14.8291 19.9995 14.1684C20.5337 13.5077 20.8699 12.7093 20.9693 11.8654C21.0687 11.0216 20.9271 10.1669 20.561 9.40016C20.1949 8.63343 19.6192 7.986 18.9006 7.53279C18.1819 7.07957 17.3496 6.83908 16.4999 6.83914Z" fill="url(#paint0_linear_507_1037)"/>
<defs>
<linearGradient id="paint0_linear_507_1037" x1="1.12565" y1="9.77045" x2="17.0826" y2="9.75376" gradientUnits="userSpaceOnUse">
<stop stop-color="#7776BC"/>
<stop offset="1" stop-color="#AD43DF"/>
</linearGradient>
</defs>
</svg>
