<svg width="22" height="18" viewBox="0 0 22 18" fill="none" xmlns="http://www.w3.org/2000/svg">
<g clip-path="url(#clip0_716_401)">
<path d="M7.28827 17.4458C15.1559 17.4458 19.458 10.9279 19.458 5.27604C19.458 5.09091 19.4543 4.90661 19.446 4.72315C20.2811 4.11939 21.0071 3.36595 21.5795 2.50826C20.8132 2.84892 19.9884 3.07825 19.1232 3.18165C20.0064 2.65211 20.6843 1.81444 21.0041 0.815822C20.1777 1.30575 19.2625 1.66184 18.2881 1.85405C17.5075 1.02263 16.3963 0.502686 15.1659 0.502686C12.8038 0.502686 10.8883 2.4182 10.8883 4.77944C10.8883 5.11509 10.9258 5.44157 10.9992 5.7547C7.44423 5.57583 4.29202 3.8738 2.18262 1.28573C1.81528 1.91785 1.60347 2.65211 1.60347 3.43558C1.60347 4.91954 2.35858 6.22962 3.50688 6.99599C2.80514 6.97431 2.14593 6.78167 1.56969 6.46103C1.56906 6.47898 1.56906 6.49647 1.56906 6.51565C1.56906 8.58711 3.04343 10.3166 5.00064 10.7086C4.64122 10.8066 4.26303 10.8591 3.87276 10.8591C3.59757 10.8591 3.32946 10.832 3.06886 10.782C3.61341 12.4815 5.19244 13.7182 7.06458 13.7528C5.60064 14.9003 3.75643 15.5837 1.75211 15.5837C1.40728 15.5837 1.06663 15.5641 0.731812 15.5245C2.6248 16.7378 4.87263 17.4458 7.28849 17.4458" fill="white"/>
</g>
<defs>
<clipPath id="clip0_716_401">
<rect width="21" height="17" fill="white" transform="translate(0.731812 0.502686)"/>
</clipPath>
</defs>
</svg>
