<svg width="274" height="99" viewBox="0 0 274 99" fill="none" xmlns="http://www.w3.org/2000/svg">
<path d="M4.51857 94.2833C7.80378 97.5485 13.3203 98.8336 21.0636 98.1826C26.6229 97.7153 31.0874 96.3782 34.4656 94.0831C37.8395 91.8321 40.2066 88.4853 41.5624 84.0868C42.2928 87.3044 44.033 89.6064 46.8578 90.8991C49.6827 92.1919 53.5086 92.6572 58.34 92.2511C64.6273 91.7226 69.3341 89.9278 72.5309 86.8173C75.7276 83.7068 77.6567 78.8229 78.3138 72.2097L80.0812 54.4224L80.1057 54.4203L81.1527 43.8833L81.1099 43.8869L81.7801 37.1414C82.078 34.1434 82.897 31.8448 84.1667 30.2953C85.4364 28.7458 87.5581 27.8679 90.5363 27.6176C93.7793 27.345 96.0212 27.8998 97.1297 29.2931C98.3044 30.6808 98.7385 32.9178 98.4274 36.048L97.7879 42.4849L97.7518 42.488L96.5 54.4204L110.5 51L111.684 41.3168L111.62 41.3222L112.33 34.1799C112.759 29.8592 113.776 26.8882 115.39 25.1786C116.933 23.5187 119.461 22.5193 122.968 22.2244C125.483 22.013 127.434 22.1988 128.753 22.7874C130.139 23.3704 131.018 24.4332 131.46 25.9263C131.898 27.4634 131.949 30.2572 131.542 34.3574L131.011 39.6921L130.953 39.697L127.989 69.5217C127.362 75.8263 128.659 80.6139 131.944 83.8791C135.229 87.1443 140.745 88.4293 148.489 87.7784C154.048 87.3111 158.513 85.9739 161.891 83.6788C165.265 81.4278 167.632 78.081 168.988 73.6825C169.718 76.9001 171.458 79.2021 174.283 80.4948C177.108 81.7876 180.934 82.253 185.765 81.8468C192.052 81.3183 196.759 79.5236 199.956 76.4131C203.153 73.3026 205.082 68.4186 205.739 61.8054L207.537 43.7083L207.559 43.7064L208.606 33.1694L208.564 33.173L209.234 26.4274C209.532 23.4294 210.351 21.1309 211.62 19.5814C212.89 18.0319 215.012 17.154 217.99 16.9036C221.233 16.631 223.475 17.1858 224.583 18.5791C225.758 19.9668 226.192 22.2038 225.881 25.3341L225.241 31.7709L225.205 31.774L224.583 38.3357L238.091 41.1399L239.138 30.6028L239.074 30.6082L239.783 23.4659C240.213 19.1453 241.23 16.1743 242.843 14.4647C244.387 12.8048 246.914 11.8053 250.422 11.5105C252.937 11.2991 254.887 11.4848 256.207 12.0734C257.593 12.6564 258.472 13.7193 258.914 15.2123C259.352 16.7494 259.403 19.5432 258.995 23.6434L258.465 28.9781L258.406 28.983L257.406 39.0546L257.404 39.0548L256.561 50.4678L270.307 47.3848L271.403 38.3396L271.449 38.3357L273.381 18.8928C274.007 12.5882 272.711 7.80059 269.426 4.53543C266.14 1.27027 260.624 -0.0148344 252.881 0.636078C247.321 1.1034 242.857 2.44053 239.479 4.73562C236.105 6.98664 233.738 10.3335 232.382 14.732C231.651 11.5144 229.911 9.21235 227.086 7.91961C224.261 6.62687 220.436 6.16155 215.604 6.56767C209.317 7.09619 204.61 8.89091 201.413 12.0014C198.217 15.112 196.287 19.9959 195.63 26.6091L193.832 44.7063L193.81 44.7081L192.763 55.2452L192.806 55.2416L192.136 61.9871C191.838 64.9851 191.019 67.2836 189.749 68.8331C188.479 70.3826 186.358 71.2605 183.379 71.5108C180.136 71.7835 177.895 71.2287 176.786 69.8354C175.611 68.4476 175.177 66.2107 175.488 63.0804L175.834 58.8526L175.684 61.114L175.684 56.8237L162.034 60.4434L161.772 63.0804L161.903 61.7619L161.586 64.9486C161.157 69.2693 160.14 72.2403 158.526 73.9498C156.983 75.6098 154.455 76.6092 150.947 76.904C148.433 77.1155 146.482 76.9296 145.162 76.3411C143.776 75.758 142.898 74.6952 142.455 73.2022C142.017 71.6651 141.967 68.8713 142.374 64.7711L142.904 59.4364L142.963 59.4315L145.927 29.6068C146.553 23.3022 145.257 18.5145 141.972 15.2494C138.687 11.9842 133.17 10.6991 125.427 11.35C119.868 11.8174 115.403 13.1545 112.025 15.4496C108.651 17.7006 106.284 21.0474 104.928 25.446C104.198 22.2284 102.458 19.9263 99.6327 18.6336C96.8078 17.3408 92.9819 16.8755 88.1506 17.2816C81.8632 17.8101 77.1565 19.6048 73.9597 22.7154C70.7629 25.8259 68.8338 30.7098 68.1767 37.3231L66.4094 55.1103L66.3849 55.1124L65.3379 65.6494L65.3806 65.6458L64.7104 72.3913C64.4125 75.3893 63.5935 77.6879 62.3238 79.2374C61.0542 80.7869 58.9324 81.6648 55.9542 81.9151C52.7113 82.1877 50.4693 81.6329 49.3608 80.2396C48.1861 78.8519 47.7521 76.6149 48.0631 73.4847L48.7027 67.0478L48.7388 67.0448L49.3608 61.7619L34.8705 64.7711L34.8066 68.216L34.8705 68.2106L34.1609 75.3528C33.7316 79.6735 32.7145 82.6445 31.1007 84.3541C29.5576 86.014 27.03 87.0134 23.5223 87.3083C21.0074 87.5197 19.0569 87.3339 17.7372 86.7453C16.3513 86.1623 15.4724 85.0995 15.0301 83.6064C14.5922 82.0693 14.5416 79.2755 14.949 75.1753L15.5377 69.8357L16.0392 67.3922L16.5407 64.9486L2.49525 60.4821L0.563491 79.9259C-0.0629335 86.2305 1.23337 91.0182 4.51857 94.2833Z" fill="#FB4B4B" fill-opacity="0.78"/>
</svg>
