<svg width="24" height="24" viewBox="0 0 24 24" fill="none" xmlns="http://www.w3.org/2000/svg">
<path d="M15.3535 2.80029C15.1175 3.22285 14.9073 3.65924 14.7238 4.10709C12.9214 3.82203 11.0853 3.82203 9.28278 4.10709C9.09935 3.65924 8.88908 3.22285 8.65314 2.80029C6.95524 3.0904 5.30465 3.60996 3.7467 4.34469C0.960772 8.36523 -0.302671 13.2463 0.182702 18.1136C1.99825 19.4785 4.03593 20.5194 6.20586 21.1905C6.69997 20.5378 7.14094 19.8466 7.52454 19.1234C6.81658 18.8624 6.13612 18.5321 5.49306 18.1374C5.66944 18.02 5.83627 17.8889 5.99202 17.7453C7.86723 18.6486 9.92189 19.1176 12.0033 19.1176C14.0847 19.1176 16.1394 18.6486 18.0146 17.7453C18.1809 17.8879 18.3472 18.0186 18.5136 18.1374C17.867 18.529 17.1872 18.8629 16.4821 19.1353C16.8498 19.8749 17.279 20.5822 17.7651 21.2499C19.9323 20.5811 21.9665 19.5399 23.7764 18.173C24.2734 13.3048 23.009 8.41975 20.2124 4.40409C18.672 3.65415 17.0377 3.11472 15.3535 2.80029ZM8.05914 15.3337C7.46465 15.291 6.90981 15.0197 6.51109 14.5767C6.11237 14.1336 5.90078 13.5534 5.92074 12.9577C5.89777 12.3612 6.10831 11.7793 6.50763 11.3356C6.90695 10.8919 7.46355 10.6215 8.05914 10.5817C8.65474 10.6215 9.21134 10.8919 9.61066 11.3356C10.01 11.7793 10.2205 12.3612 10.1976 12.9577C10.2205 13.5542 10.01 14.1361 9.61066 14.5798C9.21134 15.0235 8.65474 15.2939 8.05914 15.3337ZM15.9475 15.3337C15.353 15.291 14.7981 15.0197 14.3994 14.5767C14.0007 14.1336 13.7891 13.5534 13.8091 12.9577C13.7861 12.3612 13.9967 11.7793 14.396 11.3356C14.7953 10.8919 15.3519 10.6215 15.9475 10.5817C16.5442 10.6185 17.1026 10.8881 17.5025 11.3324C17.9024 11.7768 18.1119 12.3604 18.0859 12.9577C18.1119 13.555 17.9024 14.1386 17.5025 14.5829C17.1026 15.0273 16.5442 15.2969 15.9475 15.3337Z" fill="#E6E6E6"/>
</svg>
