<svg width="24" height="24" viewBox="0 0 24 24" fill="none" xmlns="http://www.w3.org/2000/svg">
<path d="M23.3979 6.29979C23.2626 5.79775 22.9981 5.3399 22.6309 4.97181C22.2636 4.60372 21.8064 4.33824 21.3046 4.20179C19.4442 3.69095 12.0014 3.68263 12.0014 3.68263C12.0014 3.68263 4.55974 3.67431 2.69814 4.16258C2.19672 4.30532 1.7404 4.57455 1.37301 4.94445C1.00561 5.31434 0.739469 5.77247 0.600134 6.27485C0.10949 8.13525 0.104738 11.9939 0.104738 11.9939C0.104738 11.9939 0.0999862 15.8715 0.587066 17.7129C0.860306 18.7311 1.66221 19.5353 2.68151 19.8098C4.56093 20.3206 11.9836 20.3289 11.9836 20.3289C11.9836 20.3289 19.4264 20.3372 21.2868 19.8502C21.7887 19.7139 22.2464 19.4491 22.6146 19.0817C22.9828 18.7144 23.2487 18.2573 23.386 17.7557C23.8778 15.8965 23.8814 12.0391 23.8814 12.0391C23.8814 12.0391 23.9052 8.1602 23.3979 6.29979ZM9.62062 15.5686L9.62656 8.44057L15.8125 12.0106L9.62062 15.5686Z" fill="#E6E6E6"/>
</svg>
