<svg width="144" height="144" viewBox="0 0 144 144" fill="none" xmlns="http://www.w3.org/2000/svg">
<path fill-rule="evenodd" clip-rule="evenodd" d="M72 13.5C74.4853 13.5 76.5 15.5147 76.5 18V88.136L95.818 68.818C97.5754 67.0607 100.425 67.0607 102.182 68.818C103.939 70.5754 103.939 73.4246 102.182 75.182L75.182 102.182C73.4246 103.939 70.5754 103.939 68.818 102.182L41.818 75.182C40.0607 73.4246 40.0607 70.5754 41.818 68.818C43.5754 67.0607 46.4246 67.0607 48.182 68.818L67.5 88.136V18C67.5 15.5147 69.5147 13.5 72 13.5ZM18 94.5C20.4853 94.5 22.5 96.5147 22.5 99V112.5C22.5 117.471 26.5294 121.5 31.5 121.5H112.5C117.471 121.5 121.5 117.471 121.5 112.5V99C121.5 96.5147 123.515 94.5 126 94.5C128.485 94.5 130.5 96.5147 130.5 99V112.5C130.5 122.441 122.441 130.5 112.5 130.5H31.5C21.5589 130.5 13.5 122.441 13.5 112.5V99C13.5 96.5147 15.5147 94.5 18 94.5Z" fill="#455475"/>
</svg>
