<svg width="156" height="156" viewBox="0 0 156 156" fill="none" xmlns="http://www.w3.org/2000/svg">
<path d="M78.0005 39.2896V116.79M58.6255 98.5887L64.3015 102.846C71.8677 108.521 84.1348 108.521 91.7009 102.846C99.267 97.1711 99.267 87.9705 91.7009 82.2957C87.9175 79.458 82.9586 78.0393 77.9998 78.0396C73.3179 78.0398 68.6372 76.6213 65.0651 73.7836C57.9215 68.1088 57.9215 58.9081 65.0651 53.2333C72.2086 47.5585 83.7906 47.5585 90.9341 53.2333L93.6136 55.3619M136.125 78.0396C136.125 110.141 110.102 136.165 78.0005 136.165C45.8989 136.165 19.8755 110.141 19.8755 78.0396C19.8755 45.938 45.8989 19.9146 78.0005 19.9146C110.102 19.9146 136.125 45.938 136.125 78.0396Z" stroke="#455475" stroke-width="9" stroke-linecap="round" stroke-linejoin="round"/>
</svg>
