<svg width="43" height="37" viewBox="0 0 43 37" fill="none" xmlns="http://www.w3.org/2000/svg">
<path d="M19.9231 29.6364H23.0769M42 13.7273C42 13.7273 36.0877 14.0714 33.7884 7.27512C32.6631 3.94898 30.0629 1.00002 26.5793 1.00001C22.8362 1.00001 20.1638 1 16.4207 1C12.9371 0.999999 10.3369 3.94896 9.21159 7.27509C6.9123 14.0714 1 13.7273 1 13.7273C1 13.7273 12.3889 16.9091 21.5 16.9091C35.1667 16.9091 42 13.7273 42 13.7273ZM37.2692 29.6364C37.2692 33.1509 34.4452 36 30.9615 36C27.4779 36 24.6538 33.1509 24.6538 29.6364C24.6538 26.1218 27.4779 23.2727 30.9615 23.2727C34.4452 23.2727 37.2692 26.1218 37.2692 29.6364ZM18.3462 29.6364C18.3462 33.1509 15.5221 36 12.0385 36C8.55482 36 5.73077 33.1509 5.73077 29.6364C5.73077 26.1218 8.55482 23.2727 12.0385 23.2727C15.5221 23.2727 18.3462 26.1218 18.3462 29.6364Z" stroke="white" stroke-width="2" stroke-linecap="round"/>
</svg>
