<svg width="31" height="39" viewBox="0 0 31 39" fill="none" xmlns="http://www.w3.org/2000/svg">
<path d="M9.61945 13.3569C7.05587 14.5 4.87716 16.3657 3.34729 18.7279C1.81743 21.0902 1.00207 23.8476 1 26.6661V31.5235C1 33.2412 1.67897 34.8885 2.88753 36.1031C4.0961 37.3177 5.73527 38 7.44444 38H23.5556C25.2647 38 26.9039 37.3177 28.1125 36.1031C29.321 34.8885 30 33.2412 30 31.5235V26.6661C29.9966 22.8027 28.4667 19.0987 25.7467 16.3685C24.4927 15.0977 23.0114 14.076 21.3806 13.3569M9.61945 13.3569C11.4692 12.5244 13.4732 12.094 15.5 12.094C17.5268 12.094 19.5308 12.5244 21.3806 13.3569M9.61945 13.3569L8.29833 4.7432C8.21221 4.17882 8.2761 3.6016 8.48353 3.07004C8.69096 2.53848 9.03455 2.07149 9.47948 1.71641C9.9244 1.36133 10.4548 1.13079 11.017 1.04816C11.5792 0.965527 12.1531 1.03374 12.6806 1.24589L14.2917 1.89354C15.0572 2.19996 15.9105 2.19996 16.6761 1.89354L18.2872 1.24589C18.8162 1.02598 19.394 0.95168 19.9611 1.03065C20.5282 1.10961 21.0641 1.33899 21.5137 1.69518C21.9633 2.05137 22.3103 2.52151 22.5191 3.05722C22.7279 3.59294 22.7909 4.17489 22.7017 4.7432L21.3806 13.3569M18.7222 20.1896H14.6944C14.0535 20.1896 13.4388 20.4455 12.9856 20.901C12.5324 21.3565 12.2778 21.9742 12.2778 22.6183C12.2778 23.2625 12.5324 23.8802 12.9856 24.3357C13.4388 24.7911 14.0535 25.047 14.6944 25.047H16.3056C16.9465 25.047 17.5612 25.3029 18.0144 25.7584C18.4676 26.2138 18.7222 26.8316 18.7222 27.4757C18.7222 28.1198 18.4676 28.7376 18.0144 29.193C17.5612 29.6485 16.9465 29.9044 16.3056 29.9044H12.2778M15.5 29.9044V31.5235M15.5 18.5705V20.1896" stroke="white" stroke-width="2" stroke-linecap="round" stroke-linejoin="round"/>
</svg>
