<svg width="148" height="148" viewBox="0 0 148 148" fill="none" xmlns="http://www.w3.org/2000/svg">
<rect x="1" y="1.03906" width="146" height="146" stroke="black"/>
<path d="M110.749 115.196C112.265 115.321 113.798 115.385 115.346 115.385C121.767 115.385 127.932 114.287 133.663 112.269C133.701 111.782 133.721 111.289 133.721 110.792C133.721 100.643 125.494 92.4165 115.346 92.4165C111.502 92.4165 107.934 93.597 104.984 95.6152M110.749 115.196C110.749 115.259 110.749 115.322 110.749 115.385C110.749 116.763 110.673 118.124 110.525 119.462C99.7651 125.636 87.2943 129.167 73.9989 129.167C60.7036 129.167 48.2327 125.636 37.4725 119.462C37.3248 118.124 37.2489 116.763 37.2489 115.385C37.2489 115.322 37.2491 115.26 37.2494 115.197M110.749 115.196C110.712 107.99 108.602 101.274 104.984 95.6152M104.984 95.6152C98.4549 85.4045 87.0174 78.6353 73.9989 78.6353C60.982 78.6353 49.5458 85.4028 43.0168 95.6114M43.0168 95.6114C40.0678 93.5955 36.5014 92.4165 32.6597 92.4165C22.5114 92.4165 14.2847 100.643 14.2847 110.792C14.2847 111.289 14.3044 111.782 14.3432 112.269C20.074 114.287 26.2386 115.385 32.6597 115.385C34.2053 115.385 35.736 115.322 37.2494 115.197M43.0168 95.6114C39.397 101.271 37.2856 107.989 37.2494 115.197M92.3739 41.8853C92.3739 52.0335 84.1472 60.2603 73.9989 60.2603C63.8507 60.2603 55.6239 52.0335 55.6239 41.8853C55.6239 31.737 63.8507 23.5103 73.9989 23.5103C84.1472 23.5103 92.3739 31.737 92.3739 41.8853ZM129.124 60.2603C129.124 67.8714 122.954 74.0415 115.343 74.0415C107.732 74.0415 101.561 67.8714 101.561 60.2603C101.561 52.6491 107.732 46.479 115.343 46.479C122.954 46.479 129.124 52.6491 129.124 60.2603ZM46.4364 60.2603C46.4364 67.8714 40.2664 74.0415 32.6552 74.0415C25.044 74.0415 18.8739 67.8714 18.8739 60.2603C18.8739 52.6491 25.044 46.479 32.6552 46.479C40.2664 46.479 46.4364 52.6491 46.4364 60.2603Z" stroke="#455475" stroke-width="6.20008" stroke-linecap="round" stroke-linejoin="round"/>
</svg>
