<svg width="42" height="45" viewBox="0 0 42 45" fill="none" xmlns="http://www.w3.org/2000/svg">
<path d="M31.3101 28.8651C31.2682 29.4158 31.6807 29.8962 32.2314 29.9381C32.7821 29.98 33.2625 29.5675 33.3044 29.0168L31.3101 28.8651ZM17.9582 44.363C18.5089 44.3211 18.9214 43.8407 18.8795 43.29C18.8376 42.7393 18.3572 42.3268 17.8065 42.3687L17.9582 44.363ZM16.7681 11.3972C16.3707 11.0136 15.7376 11.0248 15.3541 11.4221C14.9705 11.8195 14.9817 12.4525 15.379 12.8361L16.7681 11.3972ZM21.5795 30.037C21.5188 30.5859 21.9146 31.0801 22.4635 31.1408C23.0125 31.2015 23.5067 30.8057 23.5673 30.2567L21.5795 30.037ZM16.648 44.1337C17.0468 44.5157 17.6799 44.5021 18.0619 44.1033C18.444 43.7045 18.4304 43.0715 18.0315 42.6894L16.648 44.1337ZM18.0315 12.7807C18.4304 12.3987 18.444 11.7657 18.0619 11.3668C17.6799 10.968 17.0468 10.9544 16.648 11.3365L18.0315 12.7807ZM31.5855 44.0584C31.9761 44.4489 32.6092 44.4489 32.9998 44.0584C33.3903 43.6678 33.3903 43.0347 32.9998 42.6442L31.5855 44.0584ZM30.4433 40.0877C30.0528 39.6972 29.4196 39.6972 29.0291 40.0877C28.6385 40.4782 28.6385 41.1114 29.0291 41.5019L30.4433 40.0877ZM16.6765 42.4115C8.57088 42.4115 2 35.8407 2 27.7351H0C0 36.9452 7.46631 44.4115 16.6765 44.4115V42.4115ZM2 27.7351C2 19.6295 8.57088 13.0586 16.6765 13.0586V11.0586C7.46631 11.0586 0 18.5249 0 27.7351H2ZM16.6765 13.0586C24.7821 13.0586 31.3529 19.6295 31.3529 27.7351H33.3529C33.3529 18.5249 25.8866 11.0586 16.6765 11.0586V13.0586ZM31.3529 27.7351C31.3529 28.1155 31.3385 28.4923 31.3101 28.8651L33.3044 29.0168C33.3366 28.5936 33.3529 28.1661 33.3529 27.7351H31.3529ZM17.8065 42.3687C17.4337 42.3971 17.0569 42.4115 16.6765 42.4115V44.4115C17.1076 44.4115 17.535 44.3952 17.9582 44.363L17.8065 42.3687ZM15.379 12.8361C19.2811 16.6029 21.7059 21.8849 21.7059 27.7351H23.7059C23.7059 21.3202 21.0444 15.5252 16.7681 11.3972L15.379 12.8361ZM21.7059 27.7351C21.7059 28.5135 21.663 29.2815 21.5795 30.037L23.5673 30.2567C23.6589 29.4284 23.7059 28.587 23.7059 27.7351H21.7059ZM18.0315 42.6894C14.0957 38.9191 11.6471 33.6139 11.6471 27.7351H9.64706C9.64706 34.1815 12.3348 40.0018 16.648 44.1337L18.0315 42.6894ZM11.6471 27.7351C11.6471 21.8562 14.0957 16.551 18.0315 12.7807L16.648 11.3365C12.3348 15.4683 9.64706 21.2887 9.64706 27.7351H11.6471ZM1 28.7351H32.3529V26.7351H1V28.7351ZM32.9998 42.6442L30.4433 40.0877L29.0291 41.5019L31.5855 44.0584L32.9998 42.6442ZM30.1471 37.3821C30.1471 39.4938 28.4352 41.2057 26.3235 41.2057V43.2057C29.5398 43.2057 32.1471 40.5984 32.1471 37.3821H30.1471ZM26.3235 41.2057C24.2119 41.2057 22.5 39.4938 22.5 37.3821H20.5C20.5 40.5984 23.1073 43.2057 26.3235 43.2057V41.2057ZM22.5 37.3821C22.5 35.2704 24.2119 33.5586 26.3235 33.5586V31.5586C23.1073 31.5586 20.5 34.1659 20.5 37.3821H22.5ZM26.3235 33.5586C28.4352 33.5586 30.1471 35.2704 30.1471 37.3821H32.1471C32.1471 34.1659 29.5398 31.5586 26.3235 31.5586V33.5586Z" fill="white"/>
<path d="M33.7042 12.1193C33.1871 12.1193 32.7255 12.0213 32.3192 11.8253C31.913 11.6264 31.5906 11.3551 31.3519 11.0114C31.1161 10.6648 30.994 10.267 30.9854 9.81818H31.5266C31.5352 10.1733 31.636 10.4872 31.8292 10.7599C32.0224 11.0298 32.2809 11.2415 32.6048 11.3949C32.9315 11.5483 33.2951 11.625 33.6957 11.625C34.1303 11.625 34.511 11.5398 34.8377 11.3693C35.1673 11.1989 35.4244 10.9687 35.609 10.679C35.7937 10.3864 35.886 10.0597 35.886 9.69886C35.886 9.3125 35.7852 8.97443 35.5835 8.68466C35.3817 8.39205 35.1005 8.16477 34.7397 8.00284C34.3789 7.83807 33.9599 7.75568 33.4826 7.75568H33.1587V7.26136H33.4826C33.8888 7.26136 34.2525 7.1875 34.5735 7.03977C34.8945 6.8892 35.1474 6.67756 35.332 6.40483C35.5195 6.1321 35.6133 5.80966 35.6133 5.4375C35.6133 5.08807 35.5323 4.77841 35.3704 4.50852C35.2085 4.23864 34.984 4.02699 34.6971 3.87358C34.413 3.72017 34.0792 3.64347 33.6957 3.64347C33.3263 3.64347 32.9911 3.71875 32.69 3.86932C32.3917 4.01989 32.1545 4.23153 31.9783 4.50426C31.8022 4.77699 31.7127 5.09375 31.7099 5.45455H31.1857C31.1914 5.00284 31.305 4.60369 31.5266 4.2571C31.7511 3.91051 32.0508 3.64062 32.4258 3.44744C32.8036 3.25142 33.2298 3.15341 33.7042 3.15341C34.1871 3.15341 34.6104 3.25426 34.9741 3.45597C35.3406 3.65767 35.6246 3.9304 35.8263 4.27415C36.0309 4.6179 36.1332 5 36.1332 5.42045C36.1332 5.92614 35.9925 6.35937 35.7113 6.72017C35.4329 7.07812 35.055 7.3267 34.5778 7.46591V7.51278C35.1431 7.63778 35.5906 7.89489 35.9201 8.28409C36.2496 8.6733 36.4144 9.14489 36.4144 9.69886C36.4144 10.1534 36.2979 10.5639 36.065 10.9304C35.832 11.2969 35.511 11.5866 35.1019 11.7997C34.6957 12.0128 34.2298 12.1193 33.7042 12.1193Z" fill="white"/>
</svg>
